<?xml version="1.0" standalone="no"?>
<!DOCTYPE svg PUBLIC "-//W3C//DTD SVG 20010904//EN"
 "http://www.w3.org/TR/2001/REC-SVG-20010904/DTD/svg10.dtd">
<svg version="1.0" xmlns="http://www.w3.org/2000/svg"
 width="700.000000pt" height="700.000000pt" viewBox="0 0 700.000000 700.000000"
 preserveAspectRatio="xMidYMid meet">
<metadata>
Created by potrace 1.14, written by Peter Selinger 2001-2017
</metadata>
<g transform="translate(0.000000,700.000000) scale(0.100000,-0.100000)"
fill="#000000" stroke="none">
<path d="M0 3500 l0 -3500 3500 0 3500 0 0 3500 0 3500 -3500 0 -3500 0 0
-3500z m4019 2964 c44 -17 71 -51 71 -86 0 -32 23 -63 57 -76 24 -9 213 -22
213 -14 0 1 -15 11 -32 22 -39 24 -26 26 32 5 57 -20 63 -10 18 27 -21 16 -38
35 -38 40 0 11 75 6 115 -7 13 -4 8 4 -15 23 -29 26 -32 32 -21 46 34 40 212
50 308 16 36 -12 83 -20 125 -20 44 0 85 -7 118 -20 58 -23 78 -20 160 20 64
32 110 42 130 30 12 -7 11 -16 -8 -53 -28 -56 -20 -78 44 -125 49 -36 114
-114 147 -176 17 -33 22 -58 22 -126 0 -73 -4 -92 -27 -136 -46 -87 -120 -136
-265 -175 -112 -30 -207 -79 -297 -155 -104 -86 -152 -116 -191 -117 -64 -2
-119 58 -131 143 -10 66 -18 77 -86 111 -37 19 -95 63 -144 110 -96 92 -104
94 -229 52 -104 -34 -272 -38 -412 -9 -120 26 -135 21 -332 -105 -85 -55 -172
-104 -194 -110 -35 -9 -52 -6 -148 25 -121 40 -185 45 -296 22 -37 -8 -150
-22 -249 -30 -236 -21 -384 -58 -401 -102 -7 -19 22 -51 70 -76 22 -11 37 -22
34 -24 -12 -12 -89 22 -132 57 -26 22 -52 39 -59 39 -6 0 -31 -14 -55 -30 -35
-24 -55 -30 -95 -30 -36 0 -61 -7 -85 -23 -65 -42 -76 -47 -118 -47 -30 0 -50
-7 -72 -26 -40 -33 -93 -42 -126 -20 -50 33 -18 78 65 91 23 3 52 20 83 50 38
35 65 50 120 66 40 11 83 24 97 28 14 4 26 14 28 22 4 20 -163 173 -297 274
-108 82 -132 116 -84 123 16 2 29 -8 52 -42 21 -30 61 -64 119 -101 48 -31
113 -82 144 -112 38 -37 62 -54 72 -50 24 10 19 35 -11 54 -16 10 -86 69 -158
133 -71 63 -151 129 -177 145 -58 36 -61 47 -10 33 73 -20 118 -52 238 -169
107 -103 128 -120 176 -134 31 -9 64 -26 76 -40 24 -27 42 -31 73 -15 32 18
22 46 -37 96 -62 53 -258 268 -316 346 -45 60 -81 153 -73 185 8 35 59 30 163
-16 226 -100 291 -140 412 -256 84 -80 186 -156 226 -169 29 -9 48 11 72 80
26 71 27 102 7 128 -19 25 -19 56 0 83 11 16 14 47 12 130 -2 124 12 176 46
171 29 -4 90 -122 123 -238 30 -107 51 -153 89 -199 33 -38 66 -40 116 -6 20
14 54 28 75 31 73 10 83 14 130 55 47 41 48 41 103 33 80 -12 116 -9 196 14
39 12 111 26 160 32 118 15 136 24 152 79 7 24 24 58 38 77 24 31 132 115 165
127 30 11 90 7 129 -9z m279 -71 c-17 -17 -167 -24 -168 -8 -1 10 158 35 173
27 5 -2 2 -11 -5 -19z m-850 -140 c37 -6 38 -27 1 -31 -17 -2 -33 6 -49 24
-22 24 -23 26 -5 20 11 -4 35 -10 53 -13z m-77 -852 l-23 -18 30 5 c17 2 38 0
47 -6 14 -7 8 -11 -28 -16 -25 -4 -56 -16 -69 -27 -23 -19 -23 -19 -4 -34 17
-13 18 -15 3 -15 -9 0 -17 -5 -17 -10 0 -11 55 -5 98 11 12 5 22 5 22 -1 0
-17 -53 -50 -83 -50 -25 0 -28 -3 -24 -21 3 -13 1 -19 -6 -16 -7 2 -11 16 -10
31 1 22 -2 26 -24 26 -21 0 -24 2 -13 15 11 13 8 15 -21 15 -40 0 -29 15 21
27 28 7 36 15 38 37 2 18 14 34 35 47 40 24 60 25 28 0z m-146 -10 c8 -14 -48
-74 -114 -125 -86 -66 -91 -64 -23 5 63 65 75 89 46 89 -9 0 -91 -30 -182 -66
-92 -36 -228 -89 -302 -116 -132 -49 -173 -67 -118 -54 15 3 72 11 127 16 55
6 113 17 128 25 15 8 46 15 68 15 22 0 60 9 84 20 52 24 51 24 51 5 0 -21 -30
-33 -120 -49 -61 -11 -67 -14 -35 -15 106 -3 272 -67 350 -134 155 -134 178
-406 53 -615 -93 -153 -295 -291 -551 -377 -163 -54 -284 -76 -457 -82 -421
-15 -667 96 -695 313 -9 68 17 183 62 274 36 73 105 152 231 263 23 21 40 42
37 48 -10 15 -65 10 -165 -16 -52 -14 -99 -25 -105 -25 -5 0 55 33 135 73 80
41 209 112 288 159 245 148 379 195 668 232 128 17 258 51 414 109 104 39 116
42 125 28z m1568 -17 c44 -9 20 -24 -38 -24 -30 0 -56 -4 -60 -10 -8 -12 87
-40 323 -95 255 -59 365 -110 470 -216 124 -126 189 -331 148 -471 -19 -66
-66 -130 -182 -248 l-84 -85 36 -38 c23 -23 55 -43 90 -54 30 -9 54 -19 54
-22 0 -3 -15 -13 -33 -21 -20 -10 -41 -32 -58 -63 -14 -26 -41 -63 -59 -82
-19 -19 -32 -36 -29 -38 2 -2 16 -10 30 -19 14 -9 32 -31 39 -48 12 -28 11
-37 -8 -75 -11 -24 -42 -60 -67 -81 -56 -46 -71 -73 -80 -139 -11 -78 -79
-472 -156 -893 -38 -211 -69 -409 -69 -440 0 -31 7 -120 15 -197 17 -160 19
-391 5 -515 -17 -155 -116 -309 -258 -404 -76 -50 -99 -84 -132 -194 -17 -57
-31 -82 -62 -112 -68 -65 -43 -92 107 -110 94 -11 210 -44 221 -62 11 -18
-229 -2 -324 22 -46 11 -87 20 -93 20 -5 0 -26 -16 -48 -35 -46 -42 -51 -43
-51 -10 0 30 -29 47 -83 49 -32 1 -44 -5 -63 -29 -22 -27 -26 -28 -35 -13 -15
26 -28 23 -120 -33 -113 -68 -131 -76 -84 -37 22 18 60 51 84 74 l43 40 -128
49 -129 48 -220 8 c-121 4 -335 12 -475 19 -320 15 -474 5 -558 -36 -64 -31
-202 -134 -220 -163 -28 -47 -51 -22 -101 109 -18 47 -63 132 -100 190 -38 58
-104 170 -146 250 -43 80 -113 208 -155 285 -43 77 -118 221 -168 320 -49 99
-151 286 -226 415 -203 350 -201 344 -200 465 1 63 15 188 39 335 20 129 43
276 51 325 17 109 18 279 3 432 -8 82 -8 135 0 195 16 121 46 153 113 119 29
-14 33 -21 36 -62 3 -39 -4 -60 -44 -135 l-47 -89 -8 -350 c-8 -370 -11 -397
-69 -609 -34 -124 -30 -140 99 -370 61 -110 129 -222 151 -250 22 -28 55 -70
74 -92 18 -23 50 -86 71 -140 102 -268 222 -548 267 -627 28 -48 68 -136 90
-195 21 -59 46 -127 55 -152 10 -30 38 -67 82 -111 36 -36 75 -81 86 -100 33
-56 70 -52 209 21 112 59 119 62 238 76 162 20 501 20 743 0 314 -25 566 -45
633 -48 l63 -3 83 200 c45 110 102 240 124 289 51 108 54 136 14 136 -68 0
-253 -72 -412 -160 -138 -78 -221 -108 -344 -125 -92 -13 -113 -21 -236 -84
-157 -80 -201 -91 -355 -91 -129 0 -175 11 -154 36 7 8 33 26 58 38 l45 23
-49 -4 c-44 -5 -59 0 -128 36 -50 27 -91 41 -115 41 -63 0 -105 18 -167 71
-33 29 -97 76 -142 105 -46 30 -83 60 -83 69 0 8 9 29 20 47 11 19 20 51 20
73 0 27 9 53 27 80 18 27 28 57 32 99 l6 60 53 21 c57 21 67 37 31 45 -73 18
16 55 114 48 l59 -4 -34 17 -33 18 51 1 c51 0 74 12 74 38 0 11 -9 13 -35 9
-30 -5 -35 -3 -35 14 0 34 38 42 122 25 42 -9 119 -21 170 -28 86 -11 101 -10
190 11 91 21 98 21 135 6 21 -9 52 -29 69 -46 46 -44 80 -50 164 -29 47 12
128 21 234 25 328 12 476 32 476 64 0 21 -218 173 -294 205 -74 31 -197 57
-310 65 -125 9 -145 17 -225 85 -99 86 -205 134 -360 162 -106 19 -126 35
-125 98 1 71 52 122 164 166 93 37 174 44 279 24 78 -15 100 -16 135 -5 134
41 207 36 312 -20 82 -44 88 -36 81 111 -8 169 -29 224 -186 475 -93 150 -133
234 -214 460 -78 216 -134 400 -180 590 -46 190 -54 241 -23 155 46 -130 110
-237 224 -378 101 -126 154 -207 220 -337 27 -55 89 -166 138 -245 73 -122
188 -339 359 -680 46 -91 62 -156 74 -288 11 -120 3 -161 -34 -176 -16 -6 -19
-1 -29 46 -4 19 -14 29 -31 33 -14 3 -36 7 -49 10 -14 3 -38 17 -56 31 -17 15
-34 24 -37 21 -3 -4 5 -34 17 -67 12 -33 20 -64 16 -67 -13 -13 -55 40 -61 78
-4 22 -14 47 -23 55 -22 22 -85 11 -143 -27 -25 -16 -55 -29 -65 -29 -11 0
-58 13 -104 29 -80 28 -234 55 -262 47 -7 -3 -25 -7 -41 -10 -24 -6 -26 -9
-16 -28 15 -27 -2 -38 -46 -28 -64 14 -72 35 -26 63 55 32 115 49 211 57 52 5
105 13 118 17 20 8 18 11 -34 37 -55 28 -58 29 -126 16 -48 -8 -107 -10 -183
-5 -101 6 -118 5 -156 -13 -60 -27 -169 -109 -169 -126 0 -16 3 -18 113 -41
94 -20 271 -79 306 -102 14 -9 51 -38 81 -64 74 -64 113 -79 207 -79 182 0
318 -65 631 -296 175 -130 208 -144 276 -121 100 34 202 120 246 207 66 131
77 185 125 605 19 171 42 351 50 400 89 562 92 585 78 599 -4 3 -34 -22 -67
-57 -77 -80 -114 -101 -188 -101 -115 -2 -113 47 7 173 38 40 97 94 129 119
33 25 55 47 49 49 -5 2 -63 -15 -128 -37 -66 -22 -126 -40 -135 -40 -41 1 124
95 265 150 77 31 173 124 200 193 10 26 16 49 13 52 -2 2 -44 -16 -93 -40
-156 -77 -365 -118 -595 -117 -234 1 -455 48 -570 122 -114 73 -223 230 -251
359 -19 89 -8 197 27 260 49 91 264 272 441 374 40 22 72 42 70 43 -1 1 -23
-3 -49 -8 -55 -13 -64 -9 -48 22 17 32 0 40 -85 41 -38 0 -79 4 -90 9 -17 6
-13 9 20 15 22 3 65 14 95 22 30 8 100 19 155 23 79 6 112 13 152 34 82 41
170 51 276 30z m-778 -100 c30 -31 12 -39 -83 -39 -85 0 -89 1 -64 14 29 15
99 39 119 40 6 1 19 -6 28 -15z m-711 -93 c99 -96 152 -133 292 -205 82 -42
144 -89 133 -100 -2 -3 -40 17 -84 44 -44 27 -147 86 -229 132 -156 88 -200
126 -212 186 -4 17 -3 32 1 32 4 0 48 -40 99 -89z m-1506 -34 c8 -138 -25
-224 -101 -263 -29 -16 -30 -16 -24 8 3 12 13 43 21 66 13 34 14 52 6 80 -15
56 -13 67 25 112 19 23 35 50 35 60 0 10 3 26 6 35 13 32 27 -14 32 -98z m-58
-367 c0 -28 -23 -70 -54 -99 -33 -31 -41 -24 -20 18 9 18 14 42 10 54 -7 27
10 47 40 47 18 0 24 -6 24 -20z m1440 -585 c74 -52 163 -203 214 -363 29 -92
71 -293 81 -387 14 -129 -26 -255 -124 -398 -27 -39 -51 -79 -52 -87 -4 -36 3
-50 29 -64 l27 -14 -30 -8 c-16 -4 -56 -20 -87 -35 -68 -34 -101 -36 -145 -9
-51 30 -43 48 25 55 93 10 127 20 125 36 -1 8 -5 26 -9 40 -4 20 1 34 24 60
42 49 46 71 22 118 -27 55 -25 90 9 142 16 24 32 55 35 69 4 14 -4 81 -18 150
-30 155 -26 166 37 110 44 -38 59 -39 51 -2 -11 45 -134 326 -149 342 -13 12
-15 8 -16 -35 l-1 -50 -13 60 c-18 82 -30 111 -66 156 -34 43 -50 88 -42 119
7 27 29 25 73 -5z m330 -1315 c18 -6 4 -8 -47 -9 -39 -1 -75 4 -78 9 -7 12 88
12 125 0z"/>
<path d="M3827 6328 c-43 -45 -74 -85 -69 -90 5 -5 28 -4 53 1 24 6 73 11 109
11 101 0 140 9 140 32 0 33 -39 97 -70 113 -58 30 -79 22 -163 -67z"/>
<path d="M1720 6233 c0 -36 59 -140 105 -186 60 -61 126 -94 228 -116 44 -9
82 -22 84 -28 2 -6 -16 -19 -41 -28 -25 -10 -47 -23 -50 -30 -11 -30 77 -75
149 -75 76 0 148 48 128 85 -7 12 -271 214 -381 292 -66 47 -176 103 -201 103
-13 0 -21 -6 -21 -17z"/>
<path d="M4985 6223 c-11 -3 -67 -18 -125 -35 -97 -28 -123 -31 -340 -38 -255
-10 -354 -25 -516 -78 -124 -42 -272 -62 -455 -62 -86 0 -198 -7 -253 -15
-190 -29 -422 -101 -418 -130 3 -15 328 -18 447 -5 55 6 150 22 210 35 236 51
384 65 675 64 149 0 274 2 279 5 13 8 404 -11 513 -25 91 -12 98 -12 118 6 52
47 45 178 -13 242 -32 34 -78 48 -122 36z"/>
<path d="M5222 6178 c-16 -16 -15 -38 3 -62 19 -25 19 -67 0 -113 -21 -49 -19
-51 14 -19 16 16 32 40 36 55 3 14 19 45 36 68 l30 42 -23 15 c-34 21 -81 29
-96 14z"/>
<path d="M5363 6053 c-23 -53 -30 -147 -12 -141 26 8 59 70 59 109 0 76 -22
91 -47 32z"/>
<path d="M4844 5860 c-70 -8 -155 -37 -168 -59 -9 -14 46 -38 106 -46 78 -11
85 -14 98 -45 16 -39 28 -38 70 5 22 22 52 40 87 50 41 12 56 22 69 47 15 30
15 32 -2 45 -20 14 -138 16 -260 3z"/>
<path d="M4333 5844 c-4 -10 5 -26 23 -44 27 -25 37 -28 126 -34 96 -5 98 -5
114 19 10 16 14 34 10 50 l-6 25 -131 0 c-109 0 -131 -2 -136 -16z"/>
<path d="M2505 5819 c-83 -12 -95 -17 -71 -31 33 -18 184 -15 244 6 28 10 52
22 52 27 0 11 -143 10 -225 -2z"/>
<path d="M5139 5801 c-47 -29 -79 -65 -79 -88 0 -23 45 -14 86 17 21 16 48 30
60 30 30 0 57 23 53 46 -7 32 -66 30 -120 -5z"/>
<path d="M2565 5023 c-115 -24 -395 -131 -395 -150 0 -3 20 -3 45 -1 25 3 45
3 45 -1 0 -3 -58 -34 -128 -67 -240 -116 -425 -262 -478 -379 -28 -60 -43
-169 -30 -218 17 -68 98 -122 231 -153 106 -25 393 -25 540 0 443 75 717 257
832 552 19 52 26 88 27 145 1 68 -2 81 -29 125 -49 78 -148 129 -301 154 -86
14 -278 11 -359 -7z m458 -89 c44 -22 77 -54 77 -75 0 -21 -35 -34 -125 -49
-73 -12 -115 -31 -115 -53 0 -18 49 -64 83 -76 39 -15 122 -13 184 3 29 8 55
11 58 7 2 -4 -18 -25 -46 -46 -93 -71 -104 -103 -45 -135 49 -26 30 -86 -47
-141 -55 -40 -100 -39 -123 1 -23 38 -63 54 -118 47 -24 -4 -142 -38 -262 -77
-257 -83 -266 -85 -409 -100 -60 -7 -114 -15 -119 -17 -5 -3 2 -14 14 -23 15
-11 21 -23 17 -34 -15 -39 -181 -77 -249 -57 -44 14 -49 34 -17 75 28 36 65
53 140 65 75 13 109 35 128 85 12 33 12 39 -1 53 -21 20 -61 8 -183 -57 -123
-65 -162 -77 -183 -56 -28 28 -4 49 72 63 37 6 87 24 112 38 71 42 55 58 -47
45 -35 -4 -77 -11 -94 -16 l-30 -7 38 41 c20 23 37 51 37 61 0 30 28 51 67 51
60 0 234 40 290 66 30 14 80 49 111 78 69 64 75 66 182 77 111 10 157 25 192
60 28 27 28 30 14 58 -26 50 -17 52 277 59 64 1 97 -2 120 -14z"/>
<path d="M4668 5153 c7 -3 16 -2 19 1 4 3 -2 6 -13 5 -11 0 -14 -3 -6 -6z"/>
<path d="M4524 5121 c-196 -67 -367 -201 -409 -321 -29 -81 -14 -192 31 -237
30 -30 40 -24 85 55 51 91 131 167 225 214 75 37 91 41 199 49 65 5 120 11
123 14 3 3 0 20 -6 38 -7 19 -12 39 -12 46 0 39 179 55 294 25 125 -32 258
-120 298 -198 49 -94 21 -201 -80 -301 -64 -65 -143 -108 -239 -132 -91 -22
-308 -22 -422 0 -153 31 -202 18 -258 -70 -53 -83 -79 -72 -172 72 -66 101
-82 113 -146 101 -42 -8 -45 4 -11 49 41 53 38 69 -13 75 -25 3 -46 10 -48 16
-2 5 17 37 43 70 54 69 78 114 103 192 10 31 22 66 26 77 14 36 -86 -67 -130
-136 -58 -88 -87 -175 -93 -279 -5 -98 6 -147 47 -212 80 -126 277 -201 596
-227 211 -18 399 8 586 80 166 64 402 257 455 373 47 104 21 224 -78 352 -119
153 -282 216 -568 218 l-145 1 -104 -52 c-77 -40 -115 -53 -147 -53 -42 0 -94
17 -94 30 0 17 43 42 116 70 101 37 57 39 -52 1z"/>
<path d="M4847 1669 c-89 -59 -218 -230 -304 -404 -47 -95 -180 -429 -185
-465 -12 -90 175 56 315 245 68 93 184 323 223 444 32 98 39 203 14 209 -9 1
-37 -11 -63 -29z"/>
<path d="M3730 1488 c-40 -16 -170 -37 -235 -38 -67 0 -143 -18 -195 -45 l-35
-18 45 -21 c37 -17 65 -21 150 -21 99 0 109 2 171 33 36 18 86 53 110 78 42
43 39 53 -11 32z"/>
<path d="M2650 1439 c61 -17 120 -40 120 -49 0 -4 -17 -11 -37 -14 -71 -13
-103 -27 -103 -45 0 -23 27 -48 63 -56 62 -16 207 91 180 133 -12 20 -111 40
-198 40 -55 0 -57 -1 -25 -9z"/>
<path d="M3325 1261 c-36 -9 -85 -39 -85 -53 0 -5 8 -7 18 -5 82 23 95 11 40
-36 -29 -24 -21 -22 62 17 52 25 96 49 98 55 6 18 -87 34 -133 22z"/>
<path d="M4554 852 c-34 -26 -76 -55 -95 -65 -32 -18 -33 -19 -14 -33 47 -34
93 -6 145 89 18 31 30 57 28 56 -1 0 -30 -22 -64 -47z"/>
</g>
</svg>
